<?xml version="1.0" standalone="no"?>
<!DOCTYPE svg PUBLIC "-//W3C//DTD SVG 20010904//EN"
 "http://www.w3.org/TR/2001/REC-SVG-20010904/DTD/svg10.dtd">
<svg version="1.0" xmlns="http://www.w3.org/2000/svg"
 width="2400.000000pt" height="1792.000000pt" viewBox="0 0 2400.000000 1792.000000"
 preserveAspectRatio="xMidYMid meet">

<g transform="translate(0.000000,1792.000000) scale(0.100000,-0.100000)"
fill="#000000" stroke="none">
<path d="M22780 14086 c-177 -45 -272 -79 -445 -162 -130 -62 -148 -78 -136
-120 87 -287 383 -517 709 -550 l68 -6 22 98 c53 240 64 490 31 707 l-11 77
-37 -1 c-20 0 -110 -20 -201 -43z"/>
<path d="M22067 13289 c-57 -14 -112 -45 -153 -86 -147 -150 -104 -408 84
-500 117 -57 270 -28 356 67 63 70 80 114 81 210 0 73 -4 93 -28 142 -49 100
-137 159 -257 172 -25 3 -62 1 -83 -5z m183 -111 c127 -77 145 -251 38 -358
-140 -139 -379 -40 -380 159 -1 135 93 231 227 231 51 0 70 -5 115 -32z"/>
<path d="M21105 12931 c-316 -109 -603 -374 -785 -725 -50 -96 -61 -133 -37
-123 129 56 169 70 236 79 85 13 191 1 245 -27 24 -13 28 -12 33 3 88 253 216
512 356 725 46 68 60 97 48 97 -9 -1 -52 -13 -96 -29z"/>
<path d="M21670 12498 c-24 -7 -67 -42 -141 -116 -133 -135 -237 -290 -358
-536 -86 -174 -113 -247 -94 -259 29 -18 263 155 436 322 266 256 379 540 235
590 -35 12 -31 13 -78 -1z"/>
<path d="M22175 11912 c-164 -160 -309 -286 -422 -365 l-73 -51 33 -30 c82
-76 117 -173 116 -321 0 -81 -19 -180 -44 -238 -19 -44 167 76 273 177 108
102 217 271 267 414 27 78 55 231 55 305 0 48 -27 234 -36 249 -3 4 -8 8 -12
8 -4 -1 -75 -67 -157 -148z"/>
<path d="M23018 9591 c-130 -52 -222 -171 -243 -314 -4 -26 -10 -47 -12 -47
-3 0 -31 27 -63 60 -39 41 -80 70 -126 93 -68 31 -72 32 -244 37 -96 3 -906 6
-1800 8 -1779 3 -1680 6 -1791 -54 -60 -33 -145 -118 -186 -186 -65 -108 -62
-5 -66 -1848 -2 -921 0 -1734 3 -1806 6 -123 9 -136 42 -205 46 -98 119 -177
205 -221 131 -67 -7 -63 1933 -63 1693 0 1768 1 1833 19 179 49 314 205 336
386 5 41 9 856 10 1810 0 954 1 1737 1 1740 0 2 19 -14 43 -37 23 -22 67 -54
97 -69 50 -26 65 -29 155 -29 93 0 105 2 167 33 161 79 246 256 204 422 -30
116 -103 208 -205 257 -76 36 -221 43 -293 14z m280 -66 c239 -130 230 -466
-15 -587 -69 -33 -208 -33 -271 0 -60 32 -129 98 -154 145 -80 159 -5 366 164
452 48 24 62 26 138 23 71 -3 94 -9 138 -33z m-1783 -826 c511 -62 837 -480
930 -1192 9 -70 15 -195 15 -307 0 -957 -461 -1545 -1159 -1479 -526 49 -860
457 -956 1165 -22 159 -22 487 0 648 69 519 274 887 586 1055 117 63 205 90
379 115 52 7 118 6 205 -5z m-1701 -68 c54 -27 101 -85 128 -159 16 -43 17
-142 18 -1263 0 -1341 3 -1273 -63 -1361 -66 -88 -210 -129 -330 -94 -79 23
-135 70 -174 145 l-33 63 0 1063 0 1062 -152 6 c-215 7 -281 35 -332 139 -84
175 -5 363 174 412 45 12 117 15 385 13 326 -2 331 -2 379 -26z"/>
<path d="M23017 9403 c-10 -9 -8 -316 2 -331 4 -8 19 -12 32 -10 22 3 24 8 27
71 2 47 7 67 16 67 14 0 82 -69 111 -113 12 -19 26 -27 46 -27 39 0 38 21 -6
80 -41 56 -42 61 -14 86 53 47 58 127 11 164 -21 17 -40 20 -122 20 -53 0
-100 -3 -103 -7z m171 -59 c12 -8 22 -26 22 -39 0 -38 -26 -55 -81 -55 l-49 0
0 48 c0 27 3 52 7 55 12 13 79 7 101 -9z"/>
<path d="M21321 8140 c-132 -28 -248 -167 -301 -362 -108 -398 -77 -1039 63
-1301 40 -76 105 -142 165 -170 38 -18 66 -22 142 -22 83 0 102 3 150 27 97
48 168 144 213 290 112 358 92 1030 -38 1315 -40 86 -117 172 -182 203 -51 24
-148 33 -212 20z"/>
<path d="M7605 9409 c-176 -9 -292 -31 -420 -80 -76 -29 -152 -55 -294 -100
-72 -23 -245 -124 -371 -216 -47 -35 -121 -89 -165 -120 -103 -74 -201 -173
-292 -295 -161 -214 -234 -348 -301 -543 -97 -286 -112 -387 -119 -825 -5
-314 -4 -343 17 -465 28 -167 63 -297 104 -393 19 -42 43 -107 55 -144 49
-150 271 -455 488 -670 131 -130 144 -140 258 -199 66 -34 172 -88 235 -121
63 -32 139 -66 170 -74 30 -9 132 -40 225 -70 254 -82 301 -88 625 -88 445 -1
599 29 955 182 335 144 354 156 560 338 251 222 326 317 503 634 60 108 88
169 107 240 14 52 37 133 51 180 75 251 88 756 29 1095 -8 44 -31 139 -51 210
-20 72 -45 162 -56 200 -11 39 -40 108 -66 155 -25 47 -59 112 -75 145 -43 91
-269 365 -384 466 -142 125 -146 128 -285 212 -156 96 -192 111 -398 177 -91
29 -239 77 -330 106 -91 30 -189 58 -219 64 -61 11 -317 11 -556 -1z m475
-1068 c83 -11 305 -105 415 -176 103 -67 174 -138 240 -239 72 -110 91 -151
142 -296 90 -255 96 -492 23 -799 -35 -144 -54 -190 -107 -263 -22 -29 -56
-80 -76 -114 -97 -161 -332 -307 -579 -359 -100 -21 -151 -26 -306 -28 l-187
-2 -115 35 c-244 75 -454 232 -615 460 -27 39 -106 259 -129 360 -21 91 -39
349 -31 450 8 96 38 238 68 320 19 51 91 167 187 303 71 98 277 243 422 296
55 21 191 48 268 54 93 7 317 6 380 -2z"/>
<path d="M15245 9378 c-33 -12 -79 -34 -103 -50 -51 -35 -127 -146 -167 -243
-16 -38 -32 -74 -36 -80 -19 -27 -103 -203 -144 -305 -26 -63 -82 -188 -126
-277 -43 -89 -88 -185 -99 -213 -11 -27 -34 -78 -51 -112 -17 -34 -40 -89 -51
-122 -11 -33 -50 -121 -88 -195 -37 -75 -105 -215 -150 -311 -45 -96 -130
-274 -187 -395 -58 -121 -126 -263 -151 -315 -24 -52 -62 -140 -82 -195 -42
-110 -131 -303 -188 -405 -20 -36 -62 -129 -94 -207 -31 -79 -66 -157 -79
-174 -12 -17 -34 -63 -49 -102 -15 -40 -61 -142 -101 -227 -81 -173 -90 -215
-62 -295 30 -84 23 -83 450 -79 322 3 376 6 434 22 133 37 184 84 271 247 54
101 114 166 200 217 l68 40 143 5 c214 8 293 8 776 3 435 -4 445 -5 493 -27
144 -66 223 -154 264 -295 22 -73 65 -114 177 -169 l99 -48 371 3 c403 4 439
8 465 56 44 84 -50 382 -213 675 -24 44 -65 134 -91 200 -26 66 -77 179 -114
250 -58 112 -136 283 -237 520 -25 58 -90 188 -153 305 -16 30 -43 96 -60 145
-18 50 -56 137 -87 195 -30 58 -96 200 -148 315 -104 233 -285 624 -365 785
-29 57 -65 139 -81 181 -15 43 -43 108 -62 146 -19 37 -54 113 -78 168 -81
187 -154 296 -220 331 -51 26 -152 54 -194 53 -22 0 -67 -10 -100 -21z m154
-1935 c26 -17 52 -72 186 -378 47 -110 98 -224 112 -253 45 -93 20 -177 -64
-214 -41 -18 -58 -19 -201 -13 -87 3 -200 7 -252 9 -52 1 -105 3 -117 4 -31 3
-80 47 -86 79 -6 34 16 107 59 197 20 39 58 124 85 189 72 172 160 359 177
380 19 22 70 22 101 0z"/>
<path d="M11607 9363 c-16 -15 -863 -23 -1102 -10 -215 12 -225 10 -299 -60
-70 -66 -73 -84 -81 -398 -5 -193 -3 -295 4 -328 15 -65 56 -123 105 -151 41
-23 44 -24 401 -25 348 -2 361 -2 403 -24 24 -12 57 -37 74 -56 63 -72 60 -32
66 -886 6 -1009 6 -941 -3 -1300 -4 -188 -3 -333 3 -368 6 -37 6 -142 1 -278
l-9 -220 24 -48 c33 -64 70 -93 153 -120 67 -21 81 -22 374 -19 287 3 308 5
374 27 81 27 105 49 134 125 30 81 47 346 31 481 -9 76 -9 169 -1 391 6 166 7
303 2 321 -5 16 -8 403 -6 859 2 730 5 837 19 899 21 89 50 141 103 181 40 31
46 32 170 39 74 4 172 2 233 -4 64 -7 157 -8 241 -3 120 7 139 11 170 32 46
34 74 67 101 120 22 43 23 58 27 305 2 171 -1 277 -8 310 -15 67 -66 133 -132
172 l-55 33 -284 -2 c-157 -1 -329 -1 -383 0 -53 1 -201 -2 -327 -7 -187 -8
-242 -7 -297 5 -70 14 -214 19 -226 7z"/>
<path d="M4540 9350 c-234 -4 -280 -8 -306 -22 -55 -30 -94 -69 -120 -120
l-25 -49 -4 -837 c-4 -838 -8 -939 -40 -971 -28 -28 -90 19 -300 230 -110 110
-243 234 -295 276 -53 42 -372 354 -725 708 -563 566 -639 638 -714 684 -156
94 -281 118 -373 73 -61 -30 -97 -79 -108 -145 -14 -88 -20 -3824 -6 -3929 9
-69 38 -116 92 -145 55 -30 181 -39 549 -38 l290 0 57 27 c61 28 71 42 101
133 18 56 19 105 23 815 3 415 9 800 14 855 12 129 38 194 77 195 6 0 157
-146 334 -325 178 -179 347 -342 376 -361 48 -32 895 -868 1113 -1098 95 -100
182 -165 280 -207 46 -20 72 -24 160 -24 95 0 108 2 139 24 20 14 44 46 59 79
l24 54 3 1652 c2 1733 -4 2256 -25 2316 -20 55 -57 98 -113 130 -50 28 -57 30
-157 28 -58 -1 -229 -5 -380 -8z"/>
<path d="M1607 4340 c-58 -7 -78 -26 -86 -82 -3 -24 -6 -284 -5 -578 0 -557 1
-567 43 -589 10 -6 160 -11 348 -13 365 -3 373 -2 393 58 9 26 8 40 -2 61 -24
51 -42 54 -313 52 -137 0 -260 -1 -272 0 l-23 1 0 190 0 190 100 0 c228 0 320
7 342 27 32 29 40 59 23 98 -7 19 -15 36 -17 37 -2 1 -102 4 -223 8 l-220 5 0
185 0 185 287 5 c319 6 313 4 325 72 4 30 1 41 -20 62 -26 26 -27 26 -214 28
-335 4 -417 4 -466 -2z"/>
<path d="M8150 4340 c-194 -34 -335 -169 -376 -359 -16 -79 -19 -460 -4 -542
34 -177 175 -322 351 -360 74 -16 212 -6 279 20 118 46 240 173 240 251 0 47
-35 80 -84 80 -34 0 -55 -18 -110 -94 -35 -47 -111 -84 -193 -92 -122 -13
-226 44 -280 154 l-28 57 -3 240 c-3 225 -2 245 18 297 25 68 105 147 167 166
51 15 160 15 204 1 50 -17 94 -53 131 -107 42 -61 56 -71 100 -72 28 0 41 6
57 26 39 50 19 111 -68 206 -63 68 -151 114 -246 128 -79 11 -92 11 -155 0z"/>
<path d="M12365 4340 c-189 -29 -334 -167 -380 -362 -20 -86 -20 -446 0 -541
76 -360 509 -495 775 -241 98 93 120 169 62 214 -13 11 -37 20 -52 20 -31 0
-51 -16 -102 -80 -20 -25 -60 -59 -89 -75 -48 -27 -63 -30 -139 -30 -73 0 -92
4 -136 27 -56 29 -93 68 -127 132 -20 38 -22 57 -25 266 -4 250 2 302 48 373
53 85 137 128 245 128 107 0 172 -39 258 -154 22 -30 34 -37 61 -37 50 0 86
33 86 79 0 92 -148 237 -275 269 -60 15 -154 21 -210 12z"/>
<path d="M15870 4339 c-30 -5 -86 -24 -125 -43 -117 -55 -196 -149 -238 -281
-20 -64 -22 -90 -22 -310 0 -220 2 -246 23 -311 73 -234 296 -367 534 -319
176 36 305 144 360 302 22 64 23 82 23 313 0 209 -3 254 -18 305 -29 94 -74
169 -138 230 -68 65 -138 100 -229 114 -74 12 -93 12 -170 0z m226 -197 c50
-26 100 -81 128 -141 20 -43 21 -63 21 -296 0 -233 -1 -253 -21 -295 -24 -53
-83 -113 -139 -143 -58 -31 -202 -31 -260 0 -51 27 -106 85 -136 143 -23 44
-24 52 -24 290 l0 245 34 69 c34 70 84 116 154 143 51 20 193 11 243 -15z"/>
<path d="M3513 4316 l-28 -24 0 -575 0 -576 28 -29 c25 -26 38 -30 100 -35 40
-3 155 -3 257 1 l185 8 75 36 c118 57 196 141 236 255 22 65 24 80 24 323 0
279 -8 335 -57 419 -61 104 -173 185 -291 210 -30 6 -151 11 -277 11 -222 0
-224 0 -252 -24z m517 -163 c42 -12 67 -27 107 -66 78 -79 85 -112 81 -404 -3
-222 -4 -241 -25 -279 -30 -56 -79 -102 -138 -130 -47 -22 -62 -24 -222 -24
-173 0 -173 0 -173 23 -3 179 2 892 5 898 9 13 305 -1 365 -18z"/>
<path d="M5633 4316 l-28 -24 -3 -374 c-2 -224 1 -405 7 -452 30 -220 195
-381 404 -393 150 -9 262 28 362 119 64 58 117 158 134 252 15 79 15 802 1
843 -19 55 -90 69 -137 29 l-28 -24 -5 -419 -5 -418 -28 -57 c-30 -61 -65 -96
-131 -131 -32 -17 -58 -22 -121 -22 -70 0 -87 4 -134 30 -30 17 -67 48 -83 69
-55 76 -58 104 -58 520 0 214 -4 396 -10 415 -5 18 -17 39 -27 47 -29 21 -79
17 -110 -10z"/>
<path d="M10192 4330 c-65 -14 -157 -67 -207 -122 -60 -63 -111 -173 -126
-267 -7 -48 -10 -201 -8 -440 4 -410 5 -414 73 -426 38 -8 90 14 100 40 3 9 6
86 6 171 l0 154 279 0 279 0 6 -22 c3 -13 6 -85 6 -161 0 -135 1 -138 26 -164
22 -22 32 -25 67 -20 81 11 78 -7 75 481 -3 414 -4 433 -25 488 -50 131 -154
238 -266 274 -60 19 -222 27 -285 14z m233 -184 c29 -13 69 -44 93 -71 60 -69
75 -126 76 -305 l1 -145 -284 -3 -283 -2 4 167 c3 144 7 175 24 214 37 80 98
137 174 160 54 16 143 10 195 -15z"/>
<path d="M14118 4325 c-17 -10 -31 -29 -37 -53 -7 -23 -11 -234 -11 -575 0
-573 1 -591 48 -616 43 -23 102 -5 121 36 8 17 11 195 11 584 0 608 0 602 -55
627 -33 15 -44 15 -77 -3z"/>
<path d="M17995 4327 c-122 -32 -225 -118 -280 -234 -49 -104 -56 -182 -53
-598 l3 -377 28 -24 c34 -29 85 -32 118 -5 l24 19 5 424 c5 418 5 424 29 475
28 62 92 125 147 144 21 7 71 13 109 13 118 0 200 -59 249 -178 19 -48 21 -76
26 -456 4 -299 8 -411 18 -427 28 -49 121 -38 149 17 15 30 18 684 3 797 -25
192 -126 336 -277 394 -72 27 -224 35 -298 16z"/>
<path d="M20137 4329 c-139 -33 -260 -155 -310 -314 -23 -73 -24 -108 -18
-818 1 -70 4 -81 27 -104 22 -21 32 -25 66 -20 69 9 72 17 78 200 l5 162 278
3 277 2 0 -150 c0 -177 9 -205 65 -216 47 -8 90 11 105 46 8 20 10 139 8 431
-5 437 -6 446 -65 563 -53 105 -165 191 -281 215 -62 13 -180 13 -235 0z m254
-191 c59 -35 83 -62 116 -133 25 -56 27 -71 31 -222 l4 -163 -281 0 -281 0 0
144 c0 115 4 157 20 208 24 79 76 142 144 175 70 33 182 29 247 -9z"/>
<path d="M21989 4311 l-29 -29 0 -562 c0 -458 3 -567 14 -594 24 -57 48 -60
405 -53 306 6 315 7 338 28 25 24 31 75 13 109 -18 34 -65 40 -330 40 -226 0
-259 2 -264 16 -3 9 -6 241 -6 517 -1 529 0 520 -47 545 -35 19 -63 14 -94
-17z"/>
</g>
</svg>
