<svg xmlns="http://www.w3.org/2000/svg" viewBox="0 0 32 32">
  <!-- Flame/Trail -->
  <path d="M6 26c6-2 11-7 14-12" stroke="#F5C800" stroke-width="3.5" stroke-linecap="round" fill="none" />
  <path d="M8 28c4-1 8-4 10-8" stroke="#F97316" stroke-width="2" stroke-linecap="round" fill="none" />
  
  <!-- Fin Left -->
  <path d="M11 21l-3 4c0 0 4 1 5-2l-2-2z" fill="#EF4444" />
  <!-- Fin Right -->
  <path d="M21 11l4-3c0 0 1 4-2 5l-2-2z" fill="#EF4444" />
  
  <!-- Main Rocket Body -->
  <path d="M12 20c2 1 7-1 11-5s6-9 6-10c0-1-1-1-1 0c-1 0-6 2-10 6s-6 9-5 11z" fill="#FFFFFF" stroke="#1A3A6B" stroke-width="1.5" stroke-linejoin="round" />
  
  <!-- Red Rocket Tip -->
  <path d="M23 11c1-1 3-2 5-3c-1 2-2 4-3 5l-2-2z" fill="#EF4444" />
  
  <!-- Window -->
  <circle cx="19" cy="13" r="2.5" fill="#3B82F6" stroke="#1A3A6B" stroke-width="1.5" />
</svg>
